<svg width="35" height="36" viewBox="0 0 35 36" fill="none" xmlns="http://www.w3.org/2000/svg">
<path fill-rule="evenodd" clip-rule="evenodd" d="M18.5833 6.22834C17.8984 5.77062 17.1015 5.77062 16.4166 6.22834L16.3918 6.24459L7.38059 12.0052C6.38487 12.6404 5.83329 13.7366 5.83329 14.8351V27.1418C5.83329 28.3037 6.75096 29.2184 7.90108 29.2184H27.0988C28.249 29.2184 29.1666 28.3037 29.1666 27.1418V14.8351C29.1666 13.6991 28.5657 12.6806 27.591 11.9871L18.6081 6.24459L18.5833 6.22834ZM20.1906 3.79448C18.5314 2.69301 16.4685 2.69302 14.8093 3.79449L5.81078 9.54701C5.81058 9.54714 5.81098 9.54689 5.81078 9.54701C3.93375 10.7448 2.91663 12.7916 2.91663 14.8351V27.1418C2.91663 29.9076 5.13328 32.135 7.90108 32.135H27.0988C29.8666 32.135 32.0833 29.9076 32.0833 27.1418V14.8351C32.0833 12.5763 30.8657 10.7218 29.2425 9.58273C29.2254 9.5707 29.2079 9.55903 29.1903 9.54775L20.1906 3.79448Z" fill="#AAB2C8"/>
</svg>
