<svg width="446" height="102" viewBox="0 0 446 102" fill="none" xmlns="http://www.w3.org/2000/svg">
<path d="M168 57.5C206.123 104.833 145.761 104.833 183.885 57.5C222.008 10.1667 161.646 10.1667 199.769 57.5C237.893 104.833 177.531 104.833 215.654 57.5C253.778 10.1667 193.416 10.1667 231.539 57.5C269.662 104.833 209.3 104.833 247.424 57.5" stroke="#243E8D" stroke-width="5"/>
<path d="M173.017 57.5C211.14 104.833 150.778 104.833 188.901 57.5C227.025 10.1667 166.663 10.1667 204.786 57.5C242.909 104.833 182.547 104.833 220.671 57.5C258.794 10.1667 198.432 10.1667 236.556 57.5C274.679 104.833 214.317 104.833 252.44 57.5" stroke="white" stroke-width="5"/>
<path d="M310.72 92.18C307.36 92.18 304.81 91.1 303.07 88.94C301.39 86.72 300.25 82.61 299.65 76.61C299.29 73.49 298.93 69.44 298.57 64.46C294.37 65.72 290.14 67.04 285.88 68.42L282.82 76.88C282.22 78.5 281.8 79.67 281.56 80.39C281.32 81.05 280.87 82.07 280.21 83.45C279.61 84.83 279.07 85.85 278.59 86.51C278.17 87.11 277.54 87.89 276.7 88.85C275.92 89.81 275.11 90.5 274.27 90.92C272.11 92 269.8 92.54 267.34 92.54C264.88 92.54 262.87 91.67 261.31 89.93C259.81 88.13 259.06 85.94 259.06 83.36C259.06 82.64 259.12 81.89 259.24 81.11C260.02 75.35 265.93 70.1 276.97 65.36C280.09 57.38 285.28 43.94 292.54 25.04C294.46 23.96 296.89 23.42 299.83 23.42C300.49 23.42 301.12 23.42 301.72 23.42C302.32 23.42 303.04 23.42 303.88 23.42C304.78 23.42 305.89 23.6 307.21 23.96C307.27 26.78 308.65 44.27 311.35 76.43C311.59 79.13 311.92 80.9 312.34 81.74C312.76 82.52 313.48 82.91 314.5 82.91C316.18 82.91 318.4 81.77 321.16 79.49C323.98 77.21 326.5 74.36 328.72 70.94L331.24 77.06L329.08 79.94C322.78 88.1 316.66 92.18 310.72 92.18ZM296.41 39.08L288.58 60.95C292.78 59.51 295.9 58.46 297.94 57.8L296.41 39.08ZM273.82 73.19C268.24 76.01 265.45 78.77 265.45 81.47C265.45 83.39 266.17 84.35 267.61 84.35C268.69 84.35 269.56 83.57 270.22 82.01C271 80.33 272.2 77.39 273.82 73.19ZM357.148 34.22C355.888 36.98 354.028 39.26 351.568 41.06C349.108 42.86 346.438 43.76 343.558 43.76C340.678 43.76 338.308 42.92 336.448 41.24C334.648 39.56 333.748 37.07 333.748 33.77C333.748 30.47 335.218 27.95 338.158 26.21C341.098 24.41 344.548 23.51 348.508 23.51H384.238C384.418 24.35 384.508 25.16 384.508 25.94C384.508 27.98 383.848 29.87 382.528 31.61C381.208 33.35 379.198 34.22 376.498 34.22C376.378 34.22 376.288 34.22 376.228 34.22H357.148ZM345.448 34.22C343.228 34.22 342.118 35 342.118 36.56C342.118 37.82 343.078 38.45 344.998 38.45C345.898 38.45 346.948 38.06 348.148 37.28C349.408 36.5 350.458 35.48 351.298 34.22H345.448ZM364.078 74.72C362.578 86.48 357.268 92.36 348.148 92.36C344.908 92.36 342.298 91.37 340.318 89.39C338.398 87.41 337.438 84.92 337.438 81.92C337.438 74.9 342.778 68.9 353.458 63.92L356.608 39.98C359.068 38.42 361.918 37.64 365.158 37.64C366.658 37.64 368.098 37.79 369.478 38.09L364.078 74.72ZM352.468 71.57C346.888 74.81 344.098 77.93 344.098 80.93C344.098 83.09 345.148 84.17 347.248 84.17C349.648 84.17 351.148 81.86 351.748 77.24L352.468 71.57ZM404.695 60.59C401.215 63.05 399.475 66.71 399.475 71.57C399.475 74.63 400.555 77.51 402.715 80.21C404.935 82.91 408.655 84.26 413.875 84.26C419.095 84.26 424.045 82.49 428.725 78.95C433.405 75.41 436.945 71.54 439.345 67.34L442.405 72.83C434.665 85.97 423.895 92.54 410.095 92.54C403.255 92.54 397.465 90.71 392.725 87.05C387.985 83.33 385.615 78.98 385.615 74C385.615 65.3 389.485 59 397.225 55.1C394.645 51.92 393.355 48.2 393.355 43.94C393.355 38.36 395.755 33.56 400.555 29.54C405.415 25.52 411.025 23.51 417.385 23.51C423.745 23.51 428.635 25.13 432.055 28.37C435.535 31.61 437.275 35.87 437.275 41.15H428.725C428.785 37.91 427.915 35.48 426.115 33.86C424.375 32.18 421.915 31.34 418.735 31.34C415.615 31.34 412.795 32.48 410.275 34.76C407.455 37.22 406.045 40.1 406.045 43.4C406.045 46.7 406.945 49.55 408.745 51.95C414.745 51.23 419.305 51.62 422.425 53.12C424.345 54.02 425.305 55.46 425.305 57.44C425.305 59.36 424.195 60.71 421.975 61.49C419.815 62.27 417.205 62.66 414.145 62.66C411.085 62.66 407.935 61.97 404.695 60.59Z" fill="white"/>
<path d="M53.69 88.63C50.1433 89.5167 46.4567 90.1933 42.63 90.66C38.85 91.1733 35.1867 91.43 31.64 91.43C27.44 91.43 23.7533 91.0333 20.58 90.24C17.4533 89.4933 15.1433 88.3033 13.65 86.67C12.2967 85.1767 11.34 83.4733 10.78 81.56C10.22 79.6467 9.94 77.4767 9.94 75.05C9.94 73.1367 10.1033 70.6633 10.43 67.63L18.83 68.47C18.55 71.13 18.41 73.37 18.41 75.19C18.41 78.3633 18.8767 80.4167 19.81 81.35C20.51 82.0967 21.8867 82.6567 23.94 83.03C25.9933 83.45 28.49 83.66 31.43 83.66C34.8367 83.66 38.5 83.4033 42.42 82.89C46.3867 82.3767 50.1433 81.63 53.69 80.65V88.63ZM51.94 27.8V71.34H43.54V56.57H35.07V63.71H15.82C12.04 63.71 9.1 62.6367 7 60.49C4.94667 58.3433 4.01333 55.4033 4.2 51.67C4.71333 46.21 5.41333 41.45 6.3 37.39H3.43V29.69H35.07V34.87H43.54V27.8H51.94ZM12.6 52.23C12.5533 53.7233 12.74 54.7267 13.16 55.24C13.58 55.7533 14.4667 56.01 15.82 56.01H26.67V37.39H14.91C13.93 41.31 13.16 46.2567 12.6 52.23ZM43.54 48.17V43.27H35.07V48.17H43.54ZM76.8491 80.16C76.8491 81.5133 78.0624 82.54 80.4891 83.24C82.9624 83.94 86.0191 84.29 89.6591 84.29C90.4991 84.29 91.8057 84.2433 93.5791 84.15C96.9391 83.9633 99.4124 83.4967 100.999 82.75C102.586 82.05 103.472 81.0233 103.659 79.67C100.532 78.97 97.2657 78.3867 93.8591 77.92C90.4524 77.4533 87.4424 77.22 84.8291 77.22C79.5091 77.22 76.8491 78.2 76.8491 80.16ZM112.129 27.8V64.34H103.729V47.33H96.3091V38.93H103.729V27.8H112.129ZM65.1591 29.62H96.4491C95.3291 35.8267 93.9291 41.1 92.2491 45.44C95.6557 47.3067 97.3591 50.34 97.3591 54.54C97.3591 57.34 96.6824 60.1867 95.3291 63.08H85.7391C86.7657 61.4933 87.5591 60.0933 88.1191 58.88C88.7257 57.62 89.0291 56.4533 89.0291 55.38C89.0291 54.54 88.7957 53.8167 88.3291 53.21C84.2691 59.51 78.9724 62.94 72.4391 63.5L71.1791 63.57C69.0791 63.57 67.2357 63.1733 65.6491 62.38C64.0624 61.5867 62.8491 60.5367 62.0091 59.23C61.2157 57.8767 60.8191 56.43 60.8191 54.89C60.8191 53.1633 61.3324 51.5067 62.3591 49.92C63.4324 48.3333 65.0657 46.98 67.2591 45.86C69.4991 44.6933 72.2757 43.9233 75.5891 43.55C78.0157 43.3167 79.9757 43.2 81.4691 43.2C82.2157 43.2 83.1957 43.2467 84.4091 43.34C85.1557 41.4733 85.8091 39.4667 86.3691 37.32H65.1591V29.62ZM68.4491 65.67H76.8491V70.57C79.2757 69.9167 82.1691 69.59 85.5291 69.59C90.9424 69.59 97.0091 70.3367 103.729 71.83V66.37H112.129V79.04C112.129 83.0533 110.519 86.0867 107.299 88.14C104.126 90.24 99.7391 91.4767 94.1391 91.85C92.1791 91.9433 90.7324 91.99 89.7991 91.99C83.7324 91.99 78.6457 91.0567 74.5391 89.19C70.4791 87.3233 68.4491 84.3133 68.4491 80.16V65.67ZM71.1091 55.8C74.4224 55.8 77.4091 54.19 80.0691 50.97L76.4291 51.25C74.3757 51.4833 72.6491 51.9967 71.2491 52.79C69.8491 53.5367 69.1491 54.2367 69.1491 54.89C69.1491 55.4967 69.8024 55.8 71.1091 55.8Z" fill="white"/>
</svg>
