<svg width="35" height="36" viewBox="0 0 35 36" fill="none" xmlns="http://www.w3.org/2000/svg">
<path d="M25.375 1.56189H12.25C9.91663 1.56189 7.58329 2.88643 6.41663 4.94683C5.97913 5.68269 6.27079 6.56571 6.99996 7.00723C7.72913 7.44874 8.60413 7.1544 9.04163 6.41854C9.62496 5.24117 10.9375 4.50532 12.25 4.50532H25.375C27.4166 4.50532 29.1666 6.27137 29.1666 8.33177V25.5508V26.8754C29.1666 28.9357 27.4166 30.7018 25.375 30.7018H12.25C10.2083 30.7018 8.45829 28.9357 8.45829 26.8754V26.4338H9.62496C10.5 26.4338 11.0833 25.8451 11.0833 24.9621C11.0833 24.0791 10.5 23.4904 9.62496 23.4904H4.37496C3.49996 23.4904 2.91663 24.0791 2.91663 24.9621C2.91663 25.8451 3.49996 26.4338 4.37496 26.4338H5.54163V26.8754C5.54163 30.5546 8.60413 33.6452 12.25 33.6452H25.375C29.0208 33.6452 32.0833 30.5546 32.0833 26.8754V25.5508V8.33177C32.0833 4.65249 29.0208 1.56189 25.375 1.56189Z" fill="black"/>
<path d="M4.47913 11.7702H5.72913V20.5202C5.72913 21.3952 6.35413 21.9785 7.29163 21.9785C8.22913 21.9785 8.85413 21.3952 8.85413 20.5202V11.7702H10.1041C11.0416 11.7702 11.6666 11.1868 11.6666 10.3118C11.6666 9.43685 11.0416 8.85352 10.1041 8.85352H4.47913C3.54163 8.85352 2.91663 9.43685 2.91663 10.3118C2.91663 11.1868 3.54163 11.7702 4.47913 11.7702Z" fill="black"/>
</svg>
