<svg width="35" height="36" viewBox="0 0 35 36" fill="none" xmlns="http://www.w3.org/2000/svg">
<path d="M25.375 1.56189H12.25C9.91666 1.56189 7.58333 2.88643 6.41666 4.94683C5.97916 5.68269 6.27083 6.56571 7 7.00723C7.72916 7.44874 8.60416 7.1544 9.04166 6.41854C9.625 5.24117 10.9375 4.50532 12.25 4.50532H25.375C27.4167 4.50532 29.1667 6.27137 29.1667 8.33177V25.5508V26.8754C29.1667 28.9357 27.4167 30.7018 25.375 30.7018H12.25C10.2083 30.7018 8.45833 28.9357 8.45833 26.8754V26.4338H9.625C10.5 26.4338 11.0833 25.8451 11.0833 24.9621C11.0833 24.0791 10.5 23.4904 9.625 23.4904H4.375C3.5 23.4904 2.91666 24.0791 2.91666 24.9621C2.91666 25.8451 3.5 26.4338 4.375 26.4338H5.54166V26.8754C5.54166 30.5546 8.60416 33.6452 12.25 33.6452H25.375C29.0208 33.6452 32.0833 30.5546 32.0833 26.8754V25.5508V8.33177C32.0833 4.65249 29.0208 1.56189 25.375 1.56189Z" fill="#AAB2C8"/>
<path d="M4.47916 11.7702H5.72916V20.5202C5.72916 21.3952 6.35416 21.9785 7.29166 21.9785C8.22916 21.9785 8.85416 21.3952 8.85416 20.5202V11.7702H10.1042C11.0417 11.7702 11.6667 11.1868 11.6667 10.3118C11.6667 9.43685 11.0417 8.85352 10.1042 8.85352H4.47916C3.54166 8.85352 2.91666 9.43685 2.91666 10.3118C2.91666 11.1868 3.54166 11.7702 4.47916 11.7702Z" fill="#AAB2C8"/>
</svg>
