<svg width="73" height="73" viewBox="0 0 73 73" fill="none" xmlns="http://www.w3.org/2000/svg">
<circle cx="36.5" cy="36.5" r="34.5" fill="#1F64FF" stroke="#243E8D" stroke-width="4"/>
<path d="M13.1531 36.5C33.9877 62.3679 0.999624 62.3679 21.8342 36.5C42.6688 10.6322 9.68071 10.6322 30.5153 36.5C51.3499 62.3679 18.3618 62.3679 39.1964 36.5C60.031 10.6322 27.0429 10.6322 47.8775 36.5C68.7121 62.3679 35.7239 62.3679 56.5585 36.5" stroke="#243E8D" stroke-width="5"/>
<path d="M16.4415 36.5C37.2761 62.3679 4.28795 62.3679 25.1225 36.5C45.9571 10.6322 12.969 10.6322 33.8036 36.5C54.6382 62.3679 21.6501 62.3679 42.4847 36.5C63.3193 10.6322 30.3312 10.6322 51.1658 36.5C72.0004 62.3679 39.0123 62.3679 59.8469 36.5" stroke="white" stroke-width="5"/>
</svg>
