<svg width="31" height="30" viewBox="0 0 31 30" fill="none" xmlns="http://www.w3.org/2000/svg">
<path d="M15.5 0.0718384C7.47916 0.0718384 0.916664 6.63434 0.916664 14.6552C0.916664 22.676 7.47916 29.2385 15.5 29.2385C23.5208 29.2385 30.0833 22.676 30.0833 14.6552C30.0833 6.63434 23.5208 0.0718384 15.5 0.0718384ZM15.5 26.3218C9.08333 26.3218 3.83333 21.0718 3.83333 14.6552C3.83333 8.2385 9.08333 2.9885 15.5 2.9885C21.9167 2.9885 27.1667 8.2385 27.1667 14.6552C27.1667 21.0718 21.9167 26.3218 15.5 26.3218Z" fill="black"/>
<path d="M23.5208 19.6135C22.5 18.5927 21.3333 17.8635 20.0208 17.2802C21.0417 16.1135 21.7708 14.6552 21.7708 12.9052C21.7708 9.40517 19 6.63434 15.5 6.63434C12 6.63434 9.22916 9.40517 9.22916 12.9052C9.22916 14.6552 9.95833 16.1135 10.9792 17.2802C9.66666 17.8635 8.5 18.5927 7.47916 19.6135C6.89583 20.1968 6.89583 21.0718 7.47916 21.6552C7.77083 21.9468 8.20833 22.0927 8.5 22.0927C8.9375 22.0927 9.22916 21.9468 9.52083 21.6552C11.125 20.051 13.1667 19.176 15.5 19.176C17.6875 19.176 19.875 20.051 21.4792 21.6552C22.0625 22.2385 22.9375 22.2385 23.5208 21.6552C24.1042 21.0718 24.1042 20.1968 23.5208 19.6135ZM12.1458 12.9052C12.1458 11.0093 13.6042 9.551 15.5 9.551C17.3958 9.551 18.8542 11.0093 18.8542 12.9052C18.8542 14.801 17.3958 16.2593 15.5 16.2593C13.6042 16.2593 12.1458 14.801 12.1458 12.9052Z" fill="black"/>
</svg>
