<svg width="35" height="36" viewBox="0 0 35 36" fill="none" xmlns="http://www.w3.org/2000/svg">
<path d="M17.5 3.0719C9.47916 3.0719 2.91666 9.6344 2.91666 17.6552C2.91666 25.6761 9.47916 32.2386 17.5 32.2386C25.5208 32.2386 32.0833 25.6761 32.0833 17.6552C32.0833 9.6344 25.5208 3.0719 17.5 3.0719ZM17.5 29.3219C11.0833 29.3219 5.83333 24.0719 5.83333 17.6552C5.83333 11.2386 11.0833 5.98857 17.5 5.98857C23.9167 5.98857 29.1667 11.2386 29.1667 17.6552C29.1667 24.0719 23.9167 29.3219 17.5 29.3219Z" fill="#AAB2C8"/>
<path d="M25.5208 22.6136C24.5 21.5927 23.3333 20.8636 22.0208 20.2802C23.0417 19.1136 23.7708 17.6552 23.7708 15.9052C23.7708 12.4052 21 9.6344 17.5 9.6344C14 9.6344 11.2292 12.4052 11.2292 15.9052C11.2292 17.6552 11.9583 19.1136 12.9792 20.2802C11.6667 20.8636 10.5 21.5927 9.47916 22.6136C8.89583 23.1969 8.89583 24.0719 9.47916 24.6552C9.77083 24.9469 10.2083 25.0927 10.5 25.0927C10.9375 25.0927 11.2292 24.9469 11.5208 24.6552C13.125 23.0511 15.1667 22.1761 17.5 22.1761C19.6875 22.1761 21.875 23.0511 23.4792 24.6552C24.0625 25.2386 24.9375 25.2386 25.5208 24.6552C26.1042 24.0719 26.1042 23.1969 25.5208 22.6136ZM14.1458 15.9052C14.1458 14.0094 15.6042 12.5511 17.5 12.5511C19.3958 12.5511 20.8542 14.0094 20.8542 15.9052C20.8542 17.8011 19.3958 19.2594 17.5 19.2594C15.6042 19.2594 14.1458 17.8011 14.1458 15.9052Z" fill="#AAB2C8"/>
</svg>
